<svg width="40" height="40" viewBox="0 0 40 40" fill="none" xmlns="http://www.w3.org/2000/svg">
<path fill-rule="evenodd" clip-rule="evenodd" d="M31.25 13.3333C31.25 10.8017 29.1983 8.75 26.6667 8.75H13.3333C10.8017 8.75 8.75 10.8017 8.75 13.3333V26.6667C8.75 29.1983 10.8017 31.25 13.3333 31.25H26.6667C29.1983 31.25 31.25 29.1983 31.25 26.6667V13.3333ZM23.3333 16.6667V23.3333C23.3333 24.0233 23.8933 24.5833 24.5833 24.5833C25.2733 24.5833 25.8333 24.0233 25.8333 23.3333V16.6667C25.8333 15.9767 25.2733 15.4167 24.5833 15.4167C23.8933 15.4167 23.3333 15.9767 23.3333 16.6667ZM21.6667 23.3333V18.3333C21.6667 16.7233 20.3617 15.4167 18.75 15.4167H17.0833C15.4717 15.4167 14.1667 16.7233 14.1667 18.3333V23.3333C14.1667 24.0233 14.7267 24.5833 15.4167 24.5833C16.1067 24.5833 16.6667 24.0233 16.6667 23.3333V22.0833H19.1667V23.3333C19.1667 24.0233 19.7267 24.5833 20.4167 24.5833C21.1067 24.5833 21.6667 24.0233 21.6667 23.3333ZM16.6667 19.5833H19.1667V18.3333C19.1667 18.1033 18.98 17.9167 18.75 17.9167H17.0833C16.8533 17.9167 16.6667 18.1033 16.6667 18.3333V19.5833Z" fill="white"/>
<path fill-rule="evenodd" clip-rule="evenodd" d="M30 21.25H36.6667C37.3567 21.25 37.9167 20.69 37.9167 20C37.9167 19.31 37.3567 18.75 36.6667 18.75H30C29.31 18.75 28.75 19.31 28.75 20C28.75 20.69 29.31 21.25 30 21.25Z" fill="white"/>
<path fill-rule="evenodd" clip-rule="evenodd" d="M21.25 10V3.33337C21.25 2.64337 20.69 2.08337 20 2.08337C19.31 2.08337 18.75 2.64337 18.75 3.33337V10C18.75 10.69 19.31 11.25 20 11.25C20.69 11.25 21.25 10.69 21.25 10Z" fill="white"/>
<path fill-rule="evenodd" clip-rule="evenodd" d="M18.75 30V36.6667C18.75 37.3567 19.31 37.9167 20 37.9167C20.69 37.9167 21.25 37.3567 21.25 36.6667V30C21.25 29.31 20.69 28.75 20 28.75C19.31 28.75 18.75 29.31 18.75 30Z" fill="white"/>
<path fill-rule="evenodd" clip-rule="evenodd" d="M9.99967 18.75H3.33301C2.64301 18.75 2.08301 19.31 2.08301 20C2.08301 20.69 2.64301 21.25 3.33301 21.25H9.99967C10.6897 21.25 11.2497 20.69 11.2497 20C11.2497 19.31 10.6897 18.75 9.99967 18.75Z" fill="white"/>
<path fill-rule="evenodd" clip-rule="evenodd" d="M30 16.25H34.1667C34.8567 16.25 35.4167 15.69 35.4167 15C35.4167 14.31 34.8567 13.75 34.1667 13.75H30C29.31 13.75 28.75 14.31 28.75 15C28.75 15.69 29.31 16.25 30 16.25Z" fill="white"/>
<path fill-rule="evenodd" clip-rule="evenodd" d="M16.25 10V5.83337C16.25 5.14337 15.69 4.58337 15 4.58337C14.31 4.58337 13.75 5.14337 13.75 5.83337V10C13.75 10.69 14.31 11.25 15 11.25C15.69 11.25 16.25 10.69 16.25 10Z" fill="white"/>
<path fill-rule="evenodd" clip-rule="evenodd" d="M13.75 30V34.1667C13.75 34.8567 14.31 35.4167 15 35.4167C15.69 35.4167 16.25 34.8567 16.25 34.1667V30C16.25 29.31 15.69 28.75 15 28.75C14.31 28.75 13.75 29.31 13.75 30Z" fill="white"/>
<path fill-rule="evenodd" clip-rule="evenodd" d="M9.99967 13.75H5.83301C5.14301 13.75 4.58301 14.31 4.58301 15C4.58301 15.69 5.14301 16.25 5.83301 16.25H9.99967C10.6897 16.25 11.2497 15.69 11.2497 15C11.2497 14.31 10.6897 13.75 9.99967 13.75Z" fill="white"/>
<path fill-rule="evenodd" clip-rule="evenodd" d="M30 26.25H34.1667C34.8567 26.25 35.4167 25.69 35.4167 25C35.4167 24.31 34.8567 23.75 34.1667 23.75H30C29.31 23.75 28.75 24.31 28.75 25C28.75 25.69 29.31 26.25 30 26.25Z" fill="white"/>
<path fill-rule="evenodd" clip-rule="evenodd" d="M26.25 10V5.83337C26.25 5.14337 25.69 4.58337 25 4.58337C24.31 4.58337 23.75 5.14337 23.75 5.83337V10C23.75 10.69 24.31 11.25 25 11.25C25.69 11.25 26.25 10.69 26.25 10Z" fill="white"/>
<path fill-rule="evenodd" clip-rule="evenodd" d="M23.75 30V34.1667C23.75 34.8567 24.31 35.4167 25 35.4167C25.69 35.4167 26.25 34.8567 26.25 34.1667V30C26.25 29.31 25.69 28.75 25 28.75C24.31 28.75 23.75 29.31 23.75 30Z" fill="white"/>
<path fill-rule="evenodd" clip-rule="evenodd" d="M9.99967 23.75H5.83301C5.14301 23.75 4.58301 24.31 4.58301 25C4.58301 25.69 5.14301 26.25 5.83301 26.25H9.99967C10.6897 26.25 11.2497 25.69 11.2497 25C11.2497 24.31 10.6897 23.75 9.99967 23.75Z" fill="white"/>
</svg>
