<svg width="40" height="40" viewBox="0 0 40 40" fill="none" xmlns="http://www.w3.org/2000/svg">
<path fill-rule="evenodd" clip-rule="evenodd" d="M8.04206 17.1866L13.9232 12.0133C13.8417 11.7896 13.7972 11.548 13.7972 11.2959C13.7972 10.1434 14.7269 9.20911 15.8735 9.20911C16.9984 9.20911 17.9142 10.108 17.9488 11.23L22.5971 12.8656C22.9779 12.4163 23.5449 12.1313 24.1781 12.1313C24.5355 12.1313 24.8716 12.222 25.1652 12.3817L30.5239 7.78017C30.4479 7.5632 30.4064 7.32991 30.4064 7.08681C30.4064 5.93432 31.336 5 32.4827 5C33.6295 5 34.5591 5.93432 34.5591 7.08681C34.5591 8.23942 33.6295 9.17374 32.4827 9.17374C32.1254 9.17374 31.7892 9.08303 31.4957 8.92329L26.137 13.5249C26.213 13.7418 26.2545 13.9751 26.2545 14.2182C26.2545 15.3707 25.3249 16.305 24.1781 16.305C23.0533 16.305 22.1376 15.4061 22.1029 14.2842L17.4547 12.6486C17.0738 13.0979 16.5069 13.3829 15.8735 13.3829C15.5249 13.3829 15.1964 13.2964 14.9079 13.1438L9.02674 18.317C9.10824 18.5407 9.15268 18.7824 9.15268 19.0345C9.15268 20.1871 8.22306 21.1213 7.07625 21.1213C5.92962 21.1211 5 20.1869 5 19.0343C5 17.8817 5.92962 16.9475 7.07631 16.9475C7.42499 16.9475 7.75356 17.034 8.04206 17.1866ZM30.9032 13.2949C30.3869 13.2949 29.9657 13.7182 29.9657 14.2371V33.4669C29.9657 33.9858 30.3869 34.4091 30.9032 34.4091H34.0624C34.5789 34.4091 35 33.9858 35 33.4669V14.2371C35 13.7182 34.5789 13.2949 34.0624 13.2949H30.9032ZM22.5985 20.9792C22.0822 20.9792 21.6611 21.4024 21.6611 21.9214V33.6638C21.6611 34.1829 22.0822 34.6061 22.5985 34.6061H25.7579C26.2743 34.6061 26.6953 34.1828 26.6953 33.6638C26.6953 29.7498 26.6953 25.8356 26.6953 21.9214C26.6953 21.4024 26.2743 20.9792 25.7579 20.9792C24.7047 20.9792 23.6517 20.9792 22.5985 20.9792ZM14.294 18.2205C13.7775 18.2205 13.3564 18.6437 13.3564 19.1627V33.8608C13.3564 34.3798 13.7775 34.8031 14.294 34.8031H17.4532C17.9695 34.8031 18.3907 34.3798 18.3907 33.8608V19.1627C18.3907 18.6437 17.9695 18.2205 17.4532 18.2205H14.294ZM5.98937 26.3311H9.14855C9.66493 26.3311 10.0861 26.7543 10.0861 27.2733V34.0578C10.0861 34.5767 9.66493 35 9.14855 35H5.98937C5.473 35 5.05181 34.5767 5.05181 34.0578V27.2733C5.05187 26.7543 5.47306 26.3311 5.98937 26.3311Z" fill="white"/>
</svg>
