<svg width="180" height="60" viewBox="0 0 180 60" fill="none" xmlns="http://www.w3.org/2000/svg">
<g clip-path="url(#clip0_6190_6655)">
<g filter="url(#filter0_d_6190_6655)">
<path d="M165.666 0.000195H14.3422C13.7906 0.000195 13.2456 0.000195 12.6955 0.003195C12.235 0.006195 11.7781 0.01491 11.3132 0.022245C10.3031 0.0340977 9.29543 0.122709 8.29888 0.28731C7.30373 0.455494 6.33976 0.772569 5.43956 1.22781C4.54046 1.6869 3.71893 2.28345 3.00477 2.9958C2.28686 3.70615 1.68842 4.52722 1.23248 5.42743C0.775271 6.32586 0.458244 7.2886 0.292343 8.28242C0.124866 9.27497 0.0347448 10.279 0.0227888 11.2854C0.00882972 11.7453 0.00735559 12.2067 0 12.6667V47.3381C0.00735559 47.8038 0.00882972 48.255 0.0227888 48.7209C0.0347485 49.7273 0.12487 50.7313 0.292343 51.7238C0.457785 52.7182 0.774831 53.6815 1.23248 54.5802C1.68821 55.4775 2.28673 56.2953 3.00477 57.0017C3.71622 57.7172 4.53828 58.3142 5.43956 58.7697C6.33975 59.2262 7.30362 59.5452 8.29888 59.7159C9.2956 59.8792 10.3032 59.9679 11.3132 59.9811C11.7781 59.9913 12.235 59.9972 12.6955 59.9972C13.2456 60.0002 13.7906 60.0002 14.3422 60.0002H165.666C166.207 60.0002 166.756 60.0002 167.296 59.9972C167.755 59.9972 168.225 59.9913 168.683 59.9811C169.691 59.9686 170.697 59.8799 171.692 59.7159C172.69 59.544 173.657 59.2251 174.562 58.7697C175.462 58.3139 176.284 57.717 176.995 57.0017C177.711 56.2925 178.311 55.4754 178.772 54.5802C179.226 53.6808 179.54 52.7176 179.703 51.7238C179.871 50.7311 179.964 49.7274 179.982 48.7209C179.988 48.255 179.988 47.8038 179.988 47.3381C180 46.7931 180 46.2512 180 45.6974V14.3044C180 13.7551 180 13.2102 179.988 12.6667C179.988 12.2067 179.988 11.7453 179.982 11.2854C179.964 10.2788 179.871 9.27505 179.703 8.28236C179.54 7.28912 179.226 6.32645 178.772 5.42737C177.843 3.62299 176.371 2.15423 174.562 1.22767C173.657 0.773546 172.69 0.456556 171.692 0.287175C170.697 0.121849 169.691 0.0332066 168.683 0.022035C168.225 0.014715 167.755 0.005925 167.296 0.003C166.756 0 166.207 0.000195 165.666 0.000195Z" fill="black"/>
<path d="M12.7028 58.6875C12.2445 58.6875 11.7973 58.6816 11.3425 58.6714C10.4006 58.6592 9.46082 58.5774 8.53096 58.4268C7.66392 58.2779 6.82399 58.0009 6.03888 57.6049C5.26096 57.2123 4.55144 56.6974 3.93749 56.08C3.31466 55.47 2.79612 54.7624 2.40243 53.9853C2.0044 53.2032 1.72894 52.3648 1.58564 51.4995C1.4309 50.5697 1.34717 49.6295 1.33519 48.687C1.32566 48.3707 1.31317 47.3174 1.31317 47.3174V12.6665C1.31317 12.6665 1.32647 11.6294 1.33527 11.3247C1.34674 10.3837 1.42998 9.44498 1.58426 8.51659C1.72782 7.64888 2.00349 6.80812 2.40174 6.02344C2.79398 5.24692 3.30964 4.53879 3.92872 3.92652C4.54711 3.30843 5.2589 2.79091 6.03814 2.39281C6.82145 1.99814 7.65979 1.7231 8.52508 1.57691C9.45799 1.42475 10.401 1.34249 11.3462 1.33082L12.7035 1.3125H167.289L168.663 1.33155C169.599 1.34265 170.534 1.42417 171.458 1.57543C172.332 1.72346 173.179 2.00042 173.971 2.39721C175.533 3.19948 176.803 4.46874 177.604 6.02711C177.996 6.80637 178.267 7.64026 178.409 8.50048C178.565 9.43649 178.653 10.3826 178.671 11.3313C178.675 11.7561 178.675 12.2124 178.675 12.6665C178.687 13.229 178.687 13.7644 178.687 14.3042V45.6972C178.687 46.2421 178.687 46.7739 178.675 47.31C178.675 47.7978 178.675 48.2446 178.669 48.7046C178.652 49.6363 178.566 50.5655 178.412 51.4848C178.272 52.3564 177.998 53.2013 177.6 53.9898C177.203 54.7584 176.688 55.4599 176.072 56.0683C175.458 56.689 174.747 57.2069 173.967 57.6021C173.177 58.0011 172.331 58.2791 171.458 58.4268C170.528 58.5782 169.588 58.66 168.646 58.6714C168.206 58.6816 167.744 58.6875 167.296 58.6875L165.666 58.6905L12.7028 58.6875Z" fill="white"/>
<path d="M37.6003 29.8338C37.6171 28.5319 37.9639 27.2553 38.6084 26.1229C39.2529 24.9906 40.1742 24.0392 41.2865 23.3572C40.5799 22.3509 39.6477 21.5227 38.564 20.9385C37.4802 20.3542 36.2748 20.03 35.0434 19.9916C32.4167 19.7166 29.8703 21.559 28.5317 21.559C27.1673 21.559 25.1064 20.0189 22.8872 20.0644C21.4518 20.1107 20.0528 20.5269 18.8267 21.2726C17.6005 22.0183 16.5889 23.068 15.8906 24.3195C12.8654 29.5425 15.1219 37.2186 18.0198 41.4405C19.4697 43.5078 21.1642 45.8171 23.3814 45.7352C25.5511 45.6455 26.3614 44.3555 28.9804 44.3555C31.575 44.3555 32.3353 45.7352 34.5975 45.6831C36.9257 45.6455 38.3925 43.6066 39.7915 41.5197C40.8333 40.0466 41.6349 38.4186 42.1667 36.6959C40.8141 36.1254 39.6598 35.1705 38.8478 33.9502C38.0357 32.7299 37.6019 31.2983 37.6003 29.8338Z" fill="black"/>
<path d="M33.3275 17.2151C34.5969 15.6955 35.2223 13.7423 35.0708 11.7703C33.1315 11.9734 31.34 12.8977 30.0535 14.359C29.4244 15.0729 28.9427 15.9034 28.6357 16.8031C28.3287 17.7027 28.2026 18.6539 28.2645 19.6022C29.2345 19.6122 30.1941 19.4025 31.0711 18.989C31.9481 18.5756 32.7196 17.969 33.3275 17.2151Z" fill="black"/>
<path d="M63.6308 40.7093H56.5108L54.8009 45.7439H51.7852L58.5291 27.1169H61.6624L68.4064 45.7439H65.3392L63.6308 40.7093ZM57.2482 38.386H62.892L60.1098 30.2151H60.0319L57.2482 38.386Z" fill="black"/>
<path d="M82.9711 38.9544C82.9711 43.1746 80.7059 45.8861 77.2877 45.8861C76.4218 45.9312 75.5606 45.7323 74.8028 45.3121C74.045 44.8919 73.4212 44.2674 73.0027 43.5101H72.9381V50.2366H70.1426V32.1634H72.8485V34.4222H72.8999C73.3375 33.6685 73.9719 33.0472 74.7355 32.6244C75.4991 32.2017 76.3633 31.9932 77.2362 32.0213C80.6927 32.0213 82.9711 34.7459 82.9711 38.9544ZM80.0978 38.9544C80.0978 36.2049 78.6729 34.3973 76.4988 34.3973C74.363 34.3973 72.9263 36.243 72.9263 38.9544C72.9263 41.6908 74.363 43.5233 76.4988 43.5233C78.6729 43.5233 80.0978 41.7288 80.0978 38.9544Z" fill="black"/>
<path d="M97.9611 38.9544C97.9611 43.1746 95.6952 45.8861 92.2769 45.8861C91.411 45.9312 90.5499 45.7323 89.7921 45.3121C89.0343 44.8919 88.4104 44.2674 87.992 43.5101H87.9273V50.2366H85.1319V32.1634H87.8377V34.4222H87.8891C88.3268 33.6685 88.9612 33.0472 89.7247 32.6244C90.4883 32.2017 91.3526 31.9932 92.2255 32.0213C95.682 32.0213 97.9611 34.7459 97.9611 38.9544ZM95.0871 38.9544C95.0871 36.2049 93.6622 34.3973 91.4881 34.3973C89.3523 34.3973 87.9156 36.243 87.9156 38.9544C87.9156 41.6908 89.3523 43.5233 91.4881 43.5233C93.6622 43.5233 95.0871 41.7288 95.0871 38.9544Z" fill="black"/>
<path d="M107.866 40.554C108.073 42.4012 109.873 43.614 112.332 43.614C114.688 43.614 116.383 42.4011 116.383 40.7356C116.383 39.2898 115.361 38.4241 112.94 37.8308L110.519 37.2493C107.089 36.4231 105.497 34.8235 105.497 32.2278C105.497 29.0139 108.305 26.8064 112.292 26.8064C116.241 26.8064 118.947 29.0139 119.038 32.2278H116.216C116.047 30.3689 114.506 29.2468 112.254 29.2468C110.002 29.2468 108.461 30.3821 108.461 32.0344C108.461 33.3513 109.445 34.1262 111.853 34.7194L113.911 35.2233C117.743 36.1272 119.334 37.6623 119.334 40.3869C119.334 43.8718 116.552 46.0544 112.125 46.0544C107.982 46.0544 105.185 43.923 105.005 40.5539L107.866 40.554Z" fill="black"/>
<path d="M125.37 28.9495V32.1633H127.96V34.3709H125.37V41.8577C125.37 43.0208 125.889 43.5627 127.027 43.5627C127.335 43.5574 127.642 43.5359 127.947 43.4982V45.6926C127.435 45.788 126.915 45.8311 126.394 45.8215C123.637 45.8215 122.562 44.7888 122.562 42.155V34.3709H120.581V32.1633H122.562V28.9495H125.37Z" fill="black"/>
<path d="M129.458 38.9543C129.458 34.6814 131.982 31.9963 135.917 31.9963C139.866 31.9963 142.378 34.6813 142.378 38.9543C142.378 43.239 139.879 45.9123 135.917 45.9123C131.957 45.9123 129.458 43.239 129.458 38.9543ZM139.53 38.9543C139.53 36.0232 138.183 34.2932 135.917 34.2932C133.652 34.2932 132.305 36.0364 132.305 38.9543C132.305 41.8972 133.652 43.614 135.917 43.614C138.183 43.614 139.53 41.8972 139.53 38.9543Z" fill="black"/>
<path d="M144.683 32.1635H147.349V34.475H147.413C147.594 33.7531 148.018 33.1151 148.615 32.6683C149.211 32.2214 149.944 31.993 150.689 32.0214C151.011 32.0203 151.333 32.0552 151.647 32.1254V34.7328C151.24 34.6089 150.816 34.552 150.391 34.5644C149.985 34.548 149.58 34.6194 149.204 34.7737C148.828 34.928 148.491 35.1616 148.214 35.4585C147.937 35.7553 147.728 36.1083 147.601 36.4933C147.474 36.8783 147.432 37.2862 147.478 37.6889V45.7441H144.683L144.683 32.1635Z" fill="black"/>
<path d="M164.536 41.7551C164.16 44.2205 161.752 45.9123 158.672 45.9123C154.71 45.9123 152.251 43.2654 152.251 39.0188C152.251 34.759 154.723 31.9963 158.554 31.9963C162.322 31.9963 164.691 34.5774 164.691 38.6951V39.6501H155.073V39.8186C155.028 40.3184 155.091 40.8219 155.257 41.2957C155.422 41.7694 155.687 42.2026 156.034 42.5664C156.38 42.9302 156.801 43.2164 157.266 43.4058C157.732 43.5953 158.233 43.6837 158.736 43.6653C159.397 43.727 160.06 43.5744 160.626 43.2303C161.193 42.8861 161.633 42.3687 161.881 41.7551L164.536 41.7551ZM155.086 37.7019H161.894C161.92 37.2525 161.851 36.8028 161.694 36.381C161.536 35.9592 161.293 35.5744 160.979 35.2507C160.666 34.9271 160.288 34.6716 159.871 34.5002C159.454 34.3289 159.005 34.2455 158.554 34.2551C158.099 34.2524 157.648 34.3396 157.226 34.5117C156.805 34.6839 156.422 34.9375 156.1 35.2579C155.777 35.5784 155.522 35.9593 155.348 36.3788C155.174 36.7983 155.085 37.2479 155.086 37.7019Z" fill="black"/>
<path d="M56.8986 13.0966C57.4847 13.0546 58.0727 13.1429 58.6204 13.3551C59.1681 13.5672 59.6618 13.898 60.0658 14.3234C60.4698 14.7488 60.7741 15.2584 60.9567 15.8153C61.1393 16.3722 61.1957 16.9626 61.1218 17.5438C61.1218 20.4032 59.5721 22.0468 56.8986 22.0468H53.6566V13.0966H56.8986ZM55.0506 20.7811H56.7429C57.1617 20.806 57.5808 20.7376 57.9696 20.5807C58.3585 20.4237 58.7075 20.1823 58.991 19.874C59.2745 19.5656 59.4855 19.1981 59.6087 18.7982C59.7318 18.3982 59.764 17.976 59.7028 17.5621C59.7595 17.1498 59.7241 16.7302 59.5991 16.3332C59.4741 15.9362 59.2625 15.5717 58.9796 15.2658C58.6968 14.9599 58.3495 14.7202 57.9628 14.5638C57.5761 14.4075 57.1595 14.3383 56.7429 14.3614H55.0506V20.7811Z" fill="black"/>
<path d="M62.6966 18.6664C62.654 18.2226 62.7049 17.7747 62.8461 17.3516C62.9872 16.9285 63.2155 16.5395 63.5162 16.2095C63.817 15.8795 64.1836 15.6159 64.5925 15.4355C65.0014 15.2551 65.4437 15.1619 65.8908 15.1619C66.338 15.1619 66.7802 15.2551 67.1891 15.4355C67.598 15.6159 67.9646 15.8795 68.2654 16.2095C68.5661 16.5395 68.7944 16.9285 68.9356 17.3516C69.0767 17.7747 69.1276 18.2226 69.0851 18.6664C69.1284 19.1108 69.0781 19.5592 68.9374 19.983C68.7966 20.4068 68.5684 20.7965 68.2676 21.1272C67.9668 21.4578 67.5999 21.722 67.1906 21.9028C66.7812 22.0836 66.3385 22.177 65.8908 22.177C65.4431 22.177 65.0004 22.0836 64.5911 21.9028C64.1817 21.722 63.8149 21.4578 63.514 21.1272C63.2132 20.7965 62.9851 20.4068 62.8443 19.983C62.7035 19.5592 62.6532 19.1108 62.6966 18.6664ZM67.7101 18.6664C67.7101 17.2023 67.0505 16.3461 65.893 16.3461C64.7311 16.3461 64.0774 17.2023 64.0774 18.6664C64.0774 20.1423 64.7311 20.9919 65.893 20.9919C67.0506 20.9919 67.7101 20.1364 67.7101 18.6664Z" fill="black"/>
<path d="M77.5771 22.0466H76.1904L74.7905 17.072H74.6847L73.2907 22.0466H71.9172L70.0502 15.2922H71.406L72.6194 20.4462H72.7193L74.1118 15.2922H75.3942L76.7868 20.4462H76.8926L78.1 15.2922H79.4368L77.5771 22.0466Z" fill="black"/>
<path d="M81.0071 15.2923H82.2939V16.3653H82.3938C82.5632 15.9799 82.849 15.6569 83.2114 15.4411C83.5737 15.2254 83.9945 15.1278 84.4151 15.1619C84.7446 15.1372 85.0756 15.1868 85.3833 15.3069C85.6911 15.4271 85.9678 15.6147 86.1929 15.856C86.4181 16.0972 86.5859 16.3859 86.684 16.7007C86.7821 17.0154 86.8079 17.3481 86.7595 17.6741V22.0466H85.4228V18.0089C85.4228 16.9234 84.9498 16.3836 83.9612 16.3836C83.7374 16.3732 83.514 16.4112 83.3064 16.4949C83.0987 16.5787 82.9116 16.7062 82.758 16.8688C82.6044 17.0314 82.4879 17.2252 82.4164 17.4368C82.3449 17.6485 82.3201 17.8732 82.3438 18.0953V22.0467H81.0071L81.0071 15.2923Z" fill="black"/>
<path d="M88.8895 12.6555H90.2263V22.0466H88.8895V12.6555Z" fill="black"/>
<path d="M92.0845 18.6666C92.0419 18.2227 92.0929 17.7748 92.2341 17.3517C92.3753 16.9285 92.6036 16.5395 92.9043 16.2095C93.2051 15.8795 93.5718 15.6159 93.9807 15.4355C94.3897 15.2551 94.8319 15.1619 95.2791 15.1619C95.7263 15.1619 96.1685 15.2551 96.5775 15.4355C96.9864 15.6159 97.353 15.8795 97.6538 16.2095C97.9546 16.5395 98.1829 16.9285 98.3241 17.3517C98.4653 17.7748 98.5162 18.2227 98.4737 18.6666C98.517 19.1109 98.4667 19.5594 98.3258 19.9832C98.185 20.407 97.9568 20.7967 97.656 21.1273C97.3551 21.4579 96.9882 21.7221 96.5789 21.9029C96.1695 22.0837 95.7268 22.1771 95.2791 22.1771C94.8314 22.1771 94.3886 22.0837 93.9793 21.9029C93.5699 21.7221 93.203 21.4579 92.9022 21.1273C92.6013 20.7967 92.3731 20.407 92.2323 19.9832C92.0915 19.5594 92.0411 19.1109 92.0845 18.6666ZM97.098 18.6666C97.098 17.2025 96.4384 16.3463 95.2809 16.3463C94.119 16.3463 93.4653 17.2025 93.4653 18.6666C93.4653 20.1424 94.119 20.992 95.2809 20.992C96.4385 20.992 97.098 20.1365 97.098 18.6666Z" fill="black"/>
<path d="M99.881 20.1365C99.881 18.9206 100.789 18.2197 102.4 18.1201L104.235 18.0146V17.4316C104.235 16.7183 103.762 16.3154 102.848 16.3154C102.102 16.3154 101.585 16.5886 101.437 17.0662H100.142C100.279 15.906 101.373 15.1619 102.91 15.1619C104.608 15.1619 105.566 16.0049 105.566 17.4316V22.0466H104.279V21.0974H104.173C103.959 21.4379 103.657 21.7155 103.3 21.9018C102.942 22.0881 102.542 22.1765 102.139 22.1579C101.854 22.1874 101.567 22.1572 101.295 22.0691C101.023 21.9811 100.773 21.8372 100.56 21.6467C100.347 21.4563 100.177 21.2235 100.06 20.9633C99.9431 20.7032 99.8821 20.4215 99.881 20.1365ZM104.235 19.5593V18.9946L102.581 19.1001C101.648 19.1623 101.225 19.4787 101.225 20.0742C101.225 20.6821 101.754 21.0359 102.481 21.0359C102.694 21.0574 102.909 21.0359 103.114 20.9728C103.319 20.9096 103.508 20.8061 103.672 20.6684C103.836 20.5306 103.97 20.3614 104.066 20.1709C104.163 19.9804 104.22 19.7724 104.235 19.5593Z" fill="black"/>
<path d="M107.323 18.6665C107.323 16.5323 108.423 15.1802 110.134 15.1802C110.558 15.1607 110.978 15.2619 111.346 15.4717C111.713 15.6815 112.014 15.9914 112.211 16.3652H112.311V12.6555H113.648V22.0466H112.367V20.9795H112.261C112.048 21.3507 111.738 21.6568 111.363 21.8645C110.988 22.0722 110.563 22.1737 110.134 22.1579C108.411 22.158 107.323 20.8059 107.323 18.6665ZM108.704 18.6665C108.704 20.0991 109.381 20.9612 110.513 20.9612C111.64 20.9612 112.336 20.0867 112.336 18.6724C112.336 17.2647 111.633 16.3777 110.513 16.3777C109.388 16.3777 108.704 17.2456 108.704 18.6665Z" fill="black"/>
<path d="M119.179 18.6664C119.136 18.2226 119.187 17.7747 119.328 17.3516C119.469 16.9285 119.698 16.5395 119.998 16.2095C120.299 15.8795 120.666 15.6159 121.075 15.4355C121.484 15.2551 121.926 15.1619 122.373 15.1619C122.82 15.1619 123.262 15.2551 123.671 15.4355C124.08 15.6159 124.447 15.8795 124.747 16.2095C125.048 16.5395 125.277 16.9285 125.418 17.3516C125.559 17.7747 125.61 18.2226 125.567 18.6664C125.611 19.1108 125.56 19.5592 125.419 19.983C125.279 20.4068 125.051 20.7965 124.75 21.1272C124.449 21.4578 124.082 21.722 123.673 21.9028C123.263 22.0836 122.821 22.177 122.373 22.177C121.925 22.177 121.482 22.0836 121.073 21.9028C120.664 21.722 120.297 21.4578 119.996 21.1272C119.695 20.7965 119.467 20.4068 119.326 19.983C119.186 19.5592 119.135 19.1108 119.179 18.6664ZM124.192 18.6664C124.192 17.2023 123.533 16.3461 122.375 16.3461C121.213 16.3461 120.56 17.2023 120.56 18.6664C120.56 20.1423 121.213 20.9919 122.375 20.9919C123.533 20.9919 124.192 20.1364 124.192 18.6664Z" fill="black"/>
<path d="M127.361 15.2923H128.648V16.3653H128.747C128.917 15.9799 129.203 15.6569 129.565 15.4411C129.927 15.2254 130.348 15.1278 130.769 15.1619C131.098 15.1372 131.429 15.1868 131.737 15.3069C132.045 15.4271 132.321 15.6147 132.547 15.856C132.772 16.0972 132.94 16.3859 133.038 16.7007C133.136 17.0154 133.162 17.3481 133.113 17.6741V22.0466H131.776V18.0089C131.776 16.9234 131.303 16.3836 130.315 16.3836C130.091 16.3732 129.868 16.4112 129.66 16.4949C129.452 16.5787 129.265 16.7062 129.112 16.8688C128.958 17.0314 128.841 17.2252 128.77 17.4368C128.699 17.6485 128.674 17.8732 128.697 18.0953V22.0467H127.361V15.2923Z" fill="black"/>
<path d="M140.667 13.6106V15.323H142.134V16.4458H140.667V19.919C140.667 20.6265 140.959 20.9363 141.624 20.9363C141.795 20.9357 141.965 20.9255 142.134 20.9055V22.0159C141.894 22.0587 141.651 22.0815 141.407 22.084C139.92 22.084 139.328 21.5625 139.328 20.2602V16.4457H138.253V15.3229H139.328V13.6106H140.667Z" fill="black"/>
<path d="M143.96 12.6555H145.285V16.3777H145.391C145.568 15.9887 145.862 15.6638 146.232 15.4473C146.601 15.2308 147.029 15.1332 147.456 15.1677C147.784 15.1499 148.112 15.2045 148.416 15.3276C148.72 15.4507 148.993 15.6392 149.216 15.8797C149.439 16.1202 149.606 16.4068 149.705 16.719C149.804 17.0312 149.832 17.3613 149.789 17.6858V22.0466H148.451V18.0146C148.451 16.9358 147.947 16.3894 147.002 16.3894C146.772 16.3706 146.541 16.4021 146.325 16.4817C146.109 16.5613 145.913 16.687 145.75 16.8501C145.588 17.0132 145.463 17.2097 145.385 17.426C145.306 17.6422 145.276 17.8728 145.297 18.1018V22.0466H143.96L143.96 12.6555Z" fill="black"/>
<path d="M157.583 20.223C157.401 20.8403 157.008 21.3743 156.471 21.7315C155.935 22.0887 155.289 22.2465 154.648 22.1771C154.202 22.1889 153.758 22.1036 153.348 21.9273C152.939 21.751 152.572 21.4879 152.274 21.1562C151.977 20.8245 151.755 20.4322 151.624 20.0064C151.494 19.5807 151.458 19.1318 151.519 18.6908C151.46 18.2485 151.496 17.7986 151.626 17.3716C151.757 16.9445 151.977 16.5504 152.273 16.2158C152.569 15.8812 152.934 15.6139 153.343 15.4321C153.752 15.2503 154.195 15.1582 154.642 15.162C156.527 15.162 157.664 16.446 157.664 18.567V19.0321H152.881V19.1068C152.86 19.3547 152.891 19.6042 152.973 19.8393C153.054 20.0744 153.184 20.29 153.354 20.4722C153.523 20.6544 153.73 20.7991 153.959 20.8972C154.188 20.9953 154.435 21.0446 154.685 21.0418C155.005 21.0801 155.328 21.0227 155.615 20.8769C155.902 20.7311 156.139 20.5034 156.296 20.223L157.583 20.223ZM152.881 18.0463H156.302C156.319 17.8196 156.288 17.5919 156.211 17.3778C156.135 17.1637 156.014 16.968 155.857 16.8032C155.7 16.6384 155.51 16.5082 155.3 16.4209C155.089 16.3337 154.863 16.2913 154.635 16.2965C154.404 16.2936 154.174 16.3369 153.96 16.4238C153.746 16.5107 153.551 16.6395 153.388 16.8026C153.224 16.9657 153.095 17.1597 153.008 17.3733C152.921 17.5869 152.878 17.8157 152.881 18.0463Z" fill="black"/>
</g>
</g>
<defs>
<filter id="filter0_d_6190_6655" x="-4" y="0.000244141" width="188" height="68" filterUnits="userSpaceOnUse" color-interpolation-filters="sRGB">
<feFlood flood-opacity="0" result="BackgroundImageFix"/>
<feColorMatrix in="SourceAlpha" type="matrix" values="0 0 0 0 0 0 0 0 0 0 0 0 0 0 0 0 0 0 127 0" result="hardAlpha"/>
<feOffset dy="4"/>
<feGaussianBlur stdDeviation="2"/>
<feComposite in2="hardAlpha" operator="out"/>
<feColorMatrix type="matrix" values="0 0 0 0 0 0 0 0 0 0 0 0 0 0 0 0 0 0 0.25 0"/>
<feBlend mode="normal" in2="BackgroundImageFix" result="effect1_dropShadow_6190_6655"/>
<feBlend mode="normal" in="SourceGraphic" in2="effect1_dropShadow_6190_6655" result="shape"/>
</filter>
<clipPath id="clip0_6190_6655">
<rect width="180" height="60" fill="white"/>
</clipPath>
</defs>
</svg>
