<svg width="1093" height="775" viewBox="0 0 1093 775" fill="none" xmlns="http://www.w3.org/2000/svg">
<path opacity="0.03" d="M1087.56 776.184L912.708 479.667C911.004 476.763 908.307 474.543 905.094 473.401C901.881 472.259 898.36 472.268 895.153 473.427L296.541 644.178L746.602 221.278C749.234 219.138 751.013 216.158 751.627 212.86C752.241 209.562 751.65 206.157 749.959 203.243L575.11 -93.2729C572.123 -98.3576 567.822 -102.581 562.641 -105.517C557.459 -108.454 551.58 -110 545.596 -110C539.611 -110 533.732 -108.454 528.55 -105.517C523.369 -102.581 519.068 -98.3576 516.081 -93.2729L4.61311 776.184C1.60194 781.27 0.0108337 787.044 5.51294e-05 792.924C-0.0107235 798.805 1.55921 804.585 4.55171 809.681C7.54422 814.777 11.8536 819.011 17.0459 821.954C22.2381 824.898 28.1298 826.448 34.1276 826.449H1058.04C1064.05 826.469 1069.95 824.932 1075.16 821.994C1080.36 819.055 1084.68 814.819 1087.68 809.716C1090.68 804.612 1092.24 798.822 1092.22 792.933C1092.2 787.045 1090.59 781.266 1087.56 776.184Z" fill="#923DFB"/>
</svg>
