<svg width="605" height="773" viewBox="0 0 605 773" fill="none" xmlns="http://www.w3.org/2000/svg">
<path opacity="0.03" d="M601.147 731.508L456.75 486.746C455.343 484.349 453.116 482.516 450.462 481.574C447.809 480.631 444.901 480.639 442.253 481.595L-52.105 622.543L319.573 273.457C321.747 271.69 323.216 269.23 323.723 266.507C324.23 263.785 323.742 260.975 322.346 258.569L177.948 13.8075C175.482 9.61031 171.93 6.1242 167.651 3.70022C163.372 1.27625 158.517 0 153.574 0C148.632 0 143.777 1.27625 139.498 3.70022C135.219 6.1242 131.667 9.61031 129.2 13.8075L-293.19 731.508C-295.677 735.706 -296.991 740.473 -297 745.327C-297.009 750.181 -295.712 754.952 -293.241 759.159C-290.77 763.366 -287.211 766.86 -282.923 769.29C-278.635 771.72 -273.769 772.999 -268.816 773H576.773C581.733 773.017 586.61 771.748 590.908 769.322C595.206 766.897 598.774 763.4 601.249 759.187C603.724 754.975 605.018 750.195 605 745.334C604.982 740.473 603.653 735.703 601.147 731.508Z" fill="white"/>
</svg>
