<svg width="30" height="30" viewBox="0 0 30 30" fill="none" xmlns="http://www.w3.org/2000/svg">
<path d="M21.5223 21.596C21.1395 21.596 20.7776 21.6867 20.4563 21.8471L18.7954 20.1863C18.6525 20.0434 18.4586 19.9631 18.2564 19.9631H15.7528V21.4875H17.9407L19.3783 22.925C18.5769 24.4752 19.7693 26.4094 21.5224 26.3861C24.6954 26.2658 24.6948 21.7159 21.5223 21.596Z" fill="white"/>
<path d="M25.6047 15.8809C24.5505 15.8809 23.6538 16.5658 23.3346 17.5138H21.838L20.4284 16.1041C20.2855 15.9612 20.0916 15.8809 19.8894 15.8809H15.7528V17.4053H19.5737L20.9834 18.8149C21.1263 18.9579 21.3202 19.0382 21.5224 19.0382H23.3346C24.2296 21.5734 27.9466 20.9965 28 18.2759C27.9999 16.9553 26.9254 15.8809 25.6047 15.8809Z" fill="white"/>
<path d="M18.7954 9.83425L20.4563 8.17345C22.0065 8.97486 23.941 7.78248 23.9176 6.0295C23.9176 4.70886 22.8431 3.63442 21.5224 3.63442C19.7694 3.61115 18.5767 5.54538 19.3783 7.0955L17.9407 8.53302H15.7528V10.0575H18.2564C18.4586 10.0575 18.6525 9.97719 18.7954 9.83425Z" fill="white"/>
<path d="M20.4284 13.9164L21.838 12.5068H23.3345C24.2291 15.0416 27.9465 14.4653 27.9999 11.7445C27.9462 9.02328 24.2286 8.44785 23.3345 10.9823H21.5223C21.3201 10.9823 21.1262 11.0627 20.9833 11.2056L19.5736 12.6152H15.7527V14.1397H19.8893C20.0916 14.1397 20.2855 14.0593 20.4284 13.9164Z" fill="white"/>
<path d="M11.318 2.00158C8.69242 1.91046 7.28892 5.79982 9.48183 5.98555C9.9028 5.98549 10.2441 6.32677 10.2441 6.74772C10.2441 7.16868 9.9028 7.50995 9.48183 7.50995C8.31418 7.50995 7.32414 6.73573 6.99763 5.67384H6.72753C5.12285 5.67384 3.81733 6.97924 3.81733 8.58388C3.81733 9.68226 4.71097 10.5758 5.8094 10.5758C6.81896 10.6127 6.81957 12.0631 5.8094 12.1003H4.89122C1.03479 12.2471 1.03773 17.775 4.89122 17.9203H5.80935C6.81957 17.958 6.81906 19.4074 5.80935 19.4448C4.71092 19.4448 3.81728 20.3384 3.81728 21.4367C3.81728 23.0413 5.1228 24.3468 6.72748 24.3468H6.99758C7.32414 23.2848 8.31413 22.5107 9.48177 22.5107C9.90275 22.5107 10.244 22.852 10.244 23.2729C10.244 23.6939 9.90275 24.0351 9.48177 24.0351C8.88959 24.0351 8.40784 24.5169 8.40784 25.109C8.55368 28.9637 14.0825 28.9636 14.2282 25.109V19.6006C14.1506 17.5691 11.2388 17.571 11.1622 19.6006C11.1622 20.0216 10.8209 20.3629 10.3999 20.3629C9.97893 20.3629 9.63763 20.0216 9.63763 19.6006C9.60486 17.2779 12.2507 15.7642 14.2282 16.957V13.0637C12.25 14.2563 9.60501 12.7428 9.63768 10.42C9.63763 9.99909 9.97893 9.65781 10.3999 9.65781C10.8209 9.65781 11.1622 9.99909 11.1622 10.42C11.2393 12.4512 14.1517 12.45 14.2282 10.42V4.91167C14.2282 3.30697 12.9227 2.00158 11.318 2.00158Z" fill="currentColor"/>
</svg>
