<svg width="30" height="30" viewBox="0 0 30 30" fill="none" xmlns="http://www.w3.org/2000/svg">
<path d="M7.36681 8.86604L2 6.16206V12.3339C2 12.6734 2.1934 12.9887 2.50767 13.1463L7.37889 15.5835V8.84179L7.36681 8.86604Z" fill="#923CFB"/>
<path d="M8.27336 7.2776L13.6402 4.58575L8.68433 2.10003C8.4305 1.96666 8.12831 1.96666 7.87448 2.10003L2.90656 4.58575L8.27336 7.2776Z" fill="#923CFB"/>
<path d="M9.17992 8.86604V15.5957L14.0511 13.1584C14.3533 13.0008 14.5588 12.6856 14.5588 12.346V6.17419L9.192 8.86604H9.17992Z" fill="#923CFB"/>
<path d="M21.7146 22.6163C21.219 22.6163 20.808 22.204 20.808 21.7069V20.361C20.808 20.0215 21.0014 19.7062 21.3157 19.5486L22.6574 18.8695C23.1046 18.6392 23.6485 18.8332 23.8782 19.2818C24.1079 19.7304 23.9265 20.2761 23.4672 20.5065L22.6211 20.9309V21.719C22.6211 22.2162 22.2101 22.6284 21.7146 22.6284V22.6163Z" fill="#923CFB"/>
<path d="M21.7146 28C21.5453 28 21.3882 27.9515 21.2431 27.8666C20.9772 27.6969 20.808 27.4059 20.808 27.0906V25.0656C20.808 24.5685 21.219 24.1562 21.7146 24.1562C22.2101 24.1562 22.6211 24.5685 22.6211 25.0656V25.6113H22.6574C23.1046 25.3688 23.6485 25.5507 23.8782 25.9993C24.1079 26.4479 23.9265 26.9936 23.4672 27.224L22.1255 27.903C21.9926 27.9636 21.8596 28 21.7266 28H21.7146Z" fill="#923CFB"/>
<path d="M25.7397 25.9872C25.4012 25.9872 25.0869 25.8053 24.9298 25.49C24.7001 25.0414 24.8814 24.4957 25.3408 24.2654L26.1869 23.841V23.0528C26.1869 22.5557 26.5979 22.1434 27.0934 22.1434C27.589 22.1434 28 22.5557 28 23.0528V24.3987C28 24.7383 27.8066 25.0535 27.4923 25.2111L26.1506 25.8902C26.0177 25.9508 25.8847 25.9872 25.7517 25.9872H25.7397Z" fill="#923CFB"/>
<path d="M27.0814 21.2704C26.5858 21.2704 26.1748 20.8581 26.1748 20.361V19.1363H26.1385C25.6913 19.3788 25.1474 19.1969 24.9177 18.7483C24.6881 18.2996 24.8694 17.754 25.3287 17.5236L26.6704 16.8446C26.9484 16.6991 27.2868 16.7233 27.5528 16.881C27.8187 17.0507 27.9879 17.3417 27.9879 17.657V20.3488C27.9879 20.846 27.5769 21.2582 27.0814 21.2582V21.2704Z" fill="#923CFB"/>
<path d="M21.7146 22.6163C21.219 22.6163 20.808 22.204 20.808 21.7069V20.9187L19.9619 20.4943C19.5146 20.264 19.3333 19.7183 19.5509 19.2697C19.7806 18.821 20.3245 18.6392 20.7717 18.8574L22.1134 19.5364C22.4156 19.6941 22.6211 20.0093 22.6211 20.3488V21.6948C22.6211 22.1919 22.2101 22.6042 21.7146 22.6042V22.6163Z" fill="#923CFB"/>
<path d="M21.7146 28C21.5816 28 21.4365 27.9636 21.3157 27.903L19.974 27.224C19.5267 26.9936 19.3454 26.4479 19.563 25.9993C19.7806 25.5507 20.3366 25.3688 20.7838 25.587H20.8201V25.0535C20.8201 24.5564 21.2311 24.1441 21.7266 24.1441C22.2222 24.1441 22.6332 24.5564 22.6332 25.0535V27.0785C22.6332 27.3937 22.4761 27.6847 22.198 27.8545C22.053 27.9394 21.8838 27.9879 21.7266 27.9879L21.7146 28Z" fill="#923CFB"/>
<path d="M17.6774 25.9872C17.5444 25.9872 17.3994 25.9508 17.2785 25.8902L15.9368 25.2111C15.6346 25.0535 15.4291 24.7383 15.4291 24.3987V23.0528C15.4291 22.5557 15.8401 22.1434 16.3357 22.1434C16.8312 22.1434 17.2422 22.5557 17.2422 23.0528V23.841L18.0883 24.2654C18.5356 24.4957 18.7169 25.0414 18.4993 25.49C18.3422 25.8053 18.0158 25.9872 17.6894 25.9872H17.6774Z" fill="#923CFB"/>
<path d="M16.3357 21.2704C15.8401 21.2704 15.4291 20.8581 15.4291 20.361V17.6691C15.4291 17.3539 15.5862 17.0628 15.8642 16.8931C16.1302 16.7233 16.4686 16.7112 16.7466 16.8567L18.0883 17.5357C18.5356 17.7661 18.7169 18.3118 18.4993 18.7604C18.2817 19.209 17.7378 19.3909 17.2785 19.1727H17.2422V20.3852C17.2422 20.8824 16.8312 21.2946 16.3357 21.2946V21.2704Z" fill="#923CFB"/>
<path d="M24.398 17.2205C24.265 17.2205 24.1199 17.1841 23.9991 17.1235L21.7146 15.9837L19.43 17.1235C18.9707 17.3539 18.4389 17.1598 18.2092 16.7112C17.9795 16.2626 18.1609 15.7169 18.6081 15.4865L21.2915 14.1406C21.5453 14.0072 21.8475 14.0072 22.1013 14.1406L24.7847 15.4865C25.232 15.7169 25.4133 16.2626 25.1957 16.7112C25.0386 17.0265 24.7122 17.2083 24.3859 17.2083L24.398 17.2205Z" fill="#923CFB"/>
<path d="M24.6639 12.9159C24.1683 12.9159 23.7573 12.5037 23.7573 12.0065V6.55008C23.7573 6.38032 23.6244 6.24694 23.4551 6.24694H17.4114C16.9159 6.24694 16.5049 5.83467 16.5049 5.33753C16.5049 4.84039 16.9159 4.42812 17.4114 4.42812H23.4551C24.6155 4.42812 25.5704 5.38603 25.5704 6.55008V12.0065C25.5704 12.5037 25.1595 12.9159 24.6639 12.9159Z" fill="#923CFB"/>
<path d="M12.5765 25.6477H6.53278C5.37239 25.6477 4.41748 24.6898 4.41748 23.5257V17.463C4.41748 16.9658 4.82845 16.5536 5.32404 16.5536C5.81962 16.5536 6.23059 16.9658 6.23059 17.463V23.5257C6.23059 23.6955 6.36355 23.8288 6.53278 23.8288H12.5765C13.0721 23.8288 13.483 24.2411 13.483 24.7383C13.483 25.2354 13.0721 25.6477 12.5765 25.6477Z" fill="#923CFB"/>
</svg>
