<svg width="111" height="32" viewBox="0 0 111 32" fill="none" xmlns="http://www.w3.org/2000/svg">
<g clip-path="url(#clip0_5683_1574)">
<path fill-rule="evenodd" clip-rule="evenodd" d="M0 0.0585938H31.3639V31.7843H0V0.0585938ZM17.4741 14.1082V10.4823H25.988V6.85645H17.4741L11.6774 15.9221L17.4741 24.9857V17.734H25.0914V14.1082H17.4741ZM7.61719 24.9857V17.9855L12.0944 24.9857H7.61719ZM7.61719 6.85645H12.0944L7.61719 13.8567V6.85645Z" fill="white"/>
<path d="M41.3264 9.07263L44.0671 5.70619H46.0248L43.2547 9.02511L46.2636 13.8015H44.2159L42.0801 10.4509L41.3283 11.3559V13.7936H39.5664V5.69827H41.3283L41.3264 9.07263Z" fill="white"/>
<path d="M51.8481 13.7935L49.08 8.37753V13.7935H47.4434V5.69824H49.5146L52.1809 11.1915V5.69824H53.8156V13.7935H51.8481Z" fill="white"/>
<path d="M58.1017 12.647H58.9082V13.7936H55.5391V12.647H56.3456V6.84484H55.5391V5.69827H58.9082V6.84484H58.1017V12.647Z" fill="white"/>
<path d="M63.6802 9.68057H66.5912V13.9262H65.4793L65.305 12.9777C65.0654 13.2815 64.7596 13.5252 64.4115 13.6897C64.0635 13.8542 63.6825 13.9352 63.2984 13.9262C61.2918 13.9262 60.1152 12.5401 60.1152 9.92216C60.1152 6.83296 61.5991 5.55371 63.639 5.55371C65.4009 5.55371 66.4091 6.60127 66.4189 8.51024L64.6844 8.64292C64.6629 7.30822 64.15 6.96762 63.5098 6.96762C62.6602 6.96762 61.9731 7.6409 61.9731 9.84691C61.9731 11.8272 62.6171 12.5282 63.5764 12.5282C64.3184 12.5282 64.9938 12.0529 65.0368 10.9737H63.6665L63.6802 9.68057Z" fill="white"/>
<path d="M74.6942 13.7935H72.9167V10.5162H70.1916V13.8034H68.4297V5.69824H70.1916V9.04092H72.9167V5.69824H74.6942V13.7935Z" fill="white"/>
<path d="M78.1182 7.14969H76.0039V5.7041H82.012V7.14969H79.8958V13.8014H78.1182V7.14969Z" fill="white"/>
<path d="M43.9007 23.81H41.3264V27.0299H39.5645V18.9346H44.2864V20.3802H41.3264V22.4099H43.9007V23.81Z" fill="white"/>
<path d="M45.4004 23.0159C45.4004 20.3247 46.7708 18.792 48.9438 18.792C51.1677 18.792 52.2464 20.291 52.2464 22.8832C52.2464 25.608 51.0718 27.1625 48.7793 27.1625C46.4869 27.1625 45.4004 25.6516 45.4004 23.0159ZM50.3944 22.9169C50.3944 21.0416 49.9148 20.2257 48.8909 20.2257C47.8984 20.2257 47.2563 21.0317 47.2563 22.9604C47.2563 24.8892 47.7437 25.7645 48.8341 25.7645C49.8932 25.7645 50.3944 24.9229 50.3944 22.9169Z" fill="white"/>
<path d="M58.157 18.9346H59.9013V24.1288C59.9013 26.0595 58.8755 27.1625 56.7064 27.1625C54.4061 27.1625 53.6094 25.9942 53.6094 24.0634V18.9346H55.3439V23.5862C55.3439 24.9981 55.616 25.7368 56.7612 25.7368C57.9065 25.7368 58.157 25.0536 58.157 23.5961V18.9346Z" fill="white"/>
<path d="M66.2036 27.0299L63.4354 21.6059V27.0219H61.8008V18.9346H63.872L66.5325 24.4278V18.9346H68.1671V27.0299H66.2036Z" fill="white"/>
<path d="M70.1074 27.0299V18.9346H72.0651C75.0956 18.9346 76.2643 20.2811 76.2643 22.8179C76.2643 25.6298 75.0897 27.0319 72.0455 27.0319L70.1074 27.0299ZM72.3 25.5665C73.7056 25.5665 74.4535 24.9051 74.4535 22.9189C74.4535 21.0099 73.7781 20.3703 72.3 20.3703H71.8752V25.5665H72.3Z" fill="white"/>
<path d="M81.6343 18.9346L84.3281 27.0299H82.525L81.9064 25.1704H79.1383L78.551 27.0338H76.7891L79.428 18.9385L81.6343 18.9346ZM80.5106 20.5782H80.4891L79.5102 23.7981H81.5266L80.5106 20.5782Z" fill="white"/>
<path d="M86.4541 20.3802H84.3398V18.9346H90.3558V20.3802H88.2317V27.0319H86.4541V20.3802Z" fill="white"/>
<path d="M94.2716 25.8833H95.0782V27.0299H91.6992V25.8833H92.5097V20.0811H91.7031V18.9346H95.0723V20.0811H94.2716V25.8833Z" fill="white"/>
<path d="M96.3008 23.0159C96.3008 20.3247 97.6712 18.792 99.8442 18.792C102.068 18.792 103.147 20.291 103.147 22.8832C103.147 25.608 101.972 27.1625 99.6797 27.1625C97.3873 27.1625 96.3008 25.6516 96.3008 23.0159ZM101.295 22.9169C101.295 21.0416 100.815 20.2257 99.7913 20.2257C98.7988 20.2257 98.1567 21.0317 98.1567 22.9604C98.1567 24.8892 98.6441 25.7645 99.7345 25.7645C100.794 25.7645 101.295 24.9229 101.295 22.9169Z" fill="white"/>
<path d="M108.907 27.0299L106.137 21.6059V27.0219H104.502V18.9346H106.573L109.234 24.4278V18.9346H110.868V27.0299H108.907Z" fill="white"/>
</g>
<defs>
<clipPath id="clip0_5683_1574">
<rect width="111" height="32" fill="white"/>
</clipPath>
</defs>
</svg>
