<svg width="160" height="32" viewBox="0 0 160 32" fill="none" xmlns="http://www.w3.org/2000/svg">
<path d="M52.6178 24.96H48.0866V14.5376C48.0866 12.3968 47.0279 11.3259 44.9106 11.3248C43.269 11.3248 41.9607 12.0032 40.9858 13.36V24.96H36.4546V7.72159H40.9858V9.96959C42.4845 8.18505 44.4946 7.29279 47.0162 7.29279C48.8722 7.29279 50.2695 7.78079 51.2082 8.75679C52.1469 9.73278 52.6167 11.0768 52.6178 12.7888V24.96Z" fill="#06070D"/>
<path d="M72.5647 24.96H68.0319V22.7792C66.4863 24.5168 64.4644 25.3851 61.9663 25.384C60.1103 25.384 58.7188 24.9083 57.7919 23.9568C56.865 23.0054 56.401 21.672 56.3999 19.9568V7.72162H60.9311V18.176C60.9311 20.2944 61.9898 21.3531 64.1071 21.352C65.7007 21.352 67.009 20.6982 68.0319 19.3904V7.72162H72.5647V24.96Z" fill="#06070D"/>
<path d="M86.1951 25.384C84.0309 25.384 82.2586 24.504 80.8784 22.744V31.52H76.3472V7.72159H80.8784V9.89759C82.2341 8.16105 84.0063 7.29279 86.1951 7.29279C88.4543 7.29279 90.2922 8.09599 91.7087 9.70239C93.1253 11.3088 93.833 13.5147 93.8319 16.32C93.8319 19.1264 93.1242 21.3387 91.7087 22.9568C90.2933 24.5749 88.4554 25.384 86.1951 25.384ZM84.7679 21.352C86.0757 21.352 87.1285 20.888 87.9263 19.96C88.7242 19.032 89.1221 17.8187 89.1199 16.32C89.1199 14.8448 88.7215 13.6432 87.9248 12.7152C87.128 11.7872 86.0751 11.3232 84.7663 11.3232C83.9956 11.3342 83.2388 11.5307 82.56 11.896C81.8954 12.2156 81.3196 12.6936 80.8832 13.288V19.3904C81.3235 19.9876 81.9059 20.4655 82.5776 20.7808C83.2522 21.1419 84.0029 21.3377 84.7679 21.352Z" fill="#06070D"/>
<path d="M100.96 24.96H96.4351V7.72162H100.96V10.08C101.631 9.24842 102.47 8.56751 103.422 8.08162C104.356 7.57462 105.4 7.30484 106.462 7.29602V11.7184C106.051 11.6372 105.632 11.6013 105.213 11.6112C104.373 11.6292 103.547 11.8238 102.787 12.1824C101.934 12.5632 101.327 13.0267 100.966 13.5728L100.96 24.96Z" fill="#06070D"/>
<path d="M110.814 5.86559C110.459 5.86946 110.106 5.80049 109.777 5.66291C109.449 5.52533 109.152 5.32206 108.906 5.06559C108.649 4.8185 108.446 4.52157 108.308 4.19304C108.171 3.86452 108.102 3.51133 108.106 3.15519C108.101 2.80181 108.17 2.45134 108.308 2.12586C108.445 1.80038 108.649 1.50693 108.906 1.26399C109.418 0.760551 110.107 0.478455 110.826 0.478455C111.544 0.478455 112.233 0.760551 112.746 1.26399C112.998 1.50913 113.198 1.80335 113.333 2.12858C113.468 2.4538 113.535 2.80316 113.53 3.15519C113.534 3.50996 113.467 3.86199 113.332 4.19022C113.197 4.51846 112.998 4.81618 112.746 5.06559C112.497 5.32562 112.197 5.53103 111.864 5.66876C111.532 5.80649 111.174 5.87352 110.814 5.86559ZM113.099 24.96H108.568V7.72159H113.099V24.96Z" fill="#06070D"/>
<path d="M130.191 24.96H116.131V21.5664L123.911 11.68H116.131V7.72162H130.051V11.0048L122.165 20.9952H130.194L130.191 24.96Z" fill="#06070D"/>
<path d="M159.2 24.96H154.632V14.08C154.632 12.2485 153.776 11.3323 152.064 11.3312C151.335 11.3288 150.621 11.5402 150.011 11.9392C149.424 12.3046 148.91 12.7761 148.494 13.3296V24.96H143.928V14.08C143.928 12.2485 143.072 11.3323 141.358 11.3312C140.636 11.3339 139.93 11.545 139.325 11.9392C138.723 12.3068 138.201 12.7922 137.79 13.3664V24.96H133.259V7.72162H137.79V9.96962C138.217 9.35202 138.964 8.75148 140.03 8.16802C141.068 7.59344 142.235 7.29227 143.421 7.29282C145.919 7.29282 147.513 8.33975 148.202 10.4336C148.749 9.58028 149.564 8.84268 150.646 8.22082C151.703 7.60931 152.904 7.28909 154.125 7.29282C155.743 7.29282 156.992 7.72695 157.872 8.59522C158.752 9.46348 159.195 10.7659 159.2 12.5024V24.96Z" fill="#06070D"/>
<path d="M26.4434 23.7872L22.4434 16.8688C22.4044 16.801 22.3427 16.7493 22.2692 16.7226C22.1957 16.696 22.1152 16.6962 22.0418 16.7232L8.34741 20.7072L18.6434 10.84C18.7036 10.7901 18.7443 10.7205 18.7584 10.6436C18.7724 10.5666 18.7589 10.4872 18.7202 10.4192L14.7202 3.50082C14.6519 3.38218 14.5535 3.28364 14.435 3.21512C14.3164 3.14661 14.1819 3.11053 14.045 3.11053C13.9081 3.11053 13.7736 3.14661 13.6551 3.21512C13.5365 3.28364 13.4381 3.38218 13.3698 3.50082L1.66901 23.7872C1.60012 23.9059 1.56372 24.0406 1.56348 24.1778C1.56323 24.315 1.59915 24.4499 1.66761 24.5688C1.73606 24.6877 1.83465 24.7865 1.95343 24.8551C2.07222 24.9238 2.207 24.96 2.34421 24.96H25.7682C25.9056 24.9605 26.0407 24.9246 26.1598 24.8561C26.2788 24.7875 26.3777 24.6887 26.4462 24.5696C26.5148 24.4505 26.5506 24.3154 26.5501 24.178C26.5496 24.0406 26.5128 23.9058 26.4434 23.7872Z" fill="#923CFB"/>
</svg>
