<svg width="160" height="32" viewBox="0 0 160 32" fill="none" xmlns="http://www.w3.org/2000/svg">
<path d="M52.6177 24.96H48.0865V14.5376C48.0865 12.3968 47.0278 11.3259 44.9105 11.3248C43.2689 11.3248 41.9606 12.0032 40.9857 13.36V24.96H36.4545V7.72159H40.9857V9.96959C42.4843 8.18505 44.4945 7.29279 47.0161 7.29279C48.8721 7.29279 50.2694 7.78079 51.2081 8.75679C52.1467 9.73278 52.6166 11.0768 52.6177 12.7888V24.96Z" fill="white"/>
<path d="M72.5648 24.96H68.032V22.7792C66.4864 24.5168 64.4646 25.3851 61.9664 25.384C60.1104 25.384 58.719 24.9083 57.792 23.9568C56.8651 23.0054 56.4011 21.672 56.4 19.9568V7.72162H60.9312V18.176C60.9312 20.2944 61.9899 21.3531 64.1072 21.352C65.7008 21.352 67.0091 20.6982 68.032 19.3904V7.72162H72.5648V24.96Z" fill="white"/>
<path d="M86.1953 25.384C84.031 25.384 82.2587 24.504 80.8785 22.744V31.52H76.3473V7.72159H80.8785V9.89759C82.2342 8.16105 84.0065 7.29279 86.1953 7.29279C88.4545 7.29279 90.2923 8.09599 91.7089 9.70239C93.1254 11.3088 93.8331 13.5147 93.8321 16.32C93.8321 19.1264 93.1243 21.3387 91.7089 22.9568C90.2934 24.5749 88.4555 25.384 86.1953 25.384ZM84.7681 21.352C86.0758 21.352 87.1286 20.888 87.9265 19.96C88.7243 19.032 89.1222 17.8187 89.1201 16.32C89.1201 14.8448 88.7217 13.6432 87.9249 12.7152C87.1281 11.7872 86.0753 11.3232 84.7665 11.3232C83.9957 11.3342 83.2389 11.5307 82.5601 11.896C81.8956 12.2156 81.3197 12.6936 80.8833 13.288V19.3904C81.3237 19.9876 81.906 20.4655 82.5777 20.7808C83.2523 21.1419 84.003 21.3377 84.7681 21.352Z" fill="white"/>
<path d="M100.96 24.96H96.4352V7.72162H100.96V10.08C101.631 9.24842 102.47 8.56751 103.422 8.08162C104.356 7.57462 105.4 7.30484 106.462 7.29602V11.7184C106.051 11.6372 105.632 11.6013 105.213 11.6112C104.373 11.6292 103.547 11.8238 102.787 12.1824C101.934 12.5632 101.327 13.0267 100.966 13.5728L100.96 24.96Z" fill="white"/>
<path d="M110.814 5.86559C110.459 5.86946 110.106 5.80049 109.777 5.66291C109.449 5.52533 109.152 5.32206 108.906 5.06559C108.649 4.8185 108.446 4.52157 108.308 4.19304C108.171 3.86452 108.102 3.51133 108.106 3.15519C108.101 2.80181 108.17 2.45134 108.308 2.12586C108.445 1.80038 108.649 1.50693 108.906 1.26399C109.418 0.760551 110.107 0.478455 110.826 0.478455C111.544 0.478455 112.233 0.760551 112.746 1.26399C112.998 1.50913 113.198 1.80335 113.333 2.12858C113.468 2.4538 113.535 2.80316 113.53 3.15519C113.534 3.50996 113.467 3.86199 113.332 4.19022C113.197 4.51846 112.998 4.81618 112.746 5.06559C112.497 5.32562 112.197 5.53103 111.864 5.66876C111.532 5.80649 111.174 5.87352 110.814 5.86559ZM113.099 24.96H108.568V7.72159H113.099V24.96Z" fill="white"/>
<path d="M130.19 24.96H116.131V21.5664L123.91 11.68H116.131V7.72162H130.051V11.0048L122.165 20.9952H130.194L130.19 24.96Z" fill="white"/>
<path d="M159.2 24.96H154.632V14.08C154.632 12.2485 153.776 11.3323 152.064 11.3312C151.335 11.3288 150.621 11.5402 150.011 11.9392C149.424 12.3046 148.909 12.7761 148.494 13.3296V24.96H143.928V14.08C143.928 12.2485 143.071 11.3323 141.358 11.3312C140.636 11.3339 139.93 11.545 139.325 11.9392C138.722 12.3068 138.2 12.7922 137.79 13.3664V24.96H133.259V7.72162H137.79V9.96962C138.217 9.35202 138.964 8.75148 140.03 8.16802C141.068 7.59344 142.235 7.29227 143.421 7.29282C145.919 7.29282 147.512 8.33975 148.201 10.4336C148.749 9.58028 149.564 8.84268 150.646 8.22082C151.703 7.60931 152.904 7.28909 154.125 7.29282C155.743 7.29282 156.992 7.72695 157.872 8.59522C158.752 9.46348 159.194 10.7659 159.2 12.5024V24.96Z" fill="white"/>
<path d="M26.4432 23.7872L22.4432 16.8688C22.4042 16.801 22.3425 16.7493 22.269 16.7226C22.1955 16.696 22.1149 16.6962 22.0416 16.7232L8.34717 20.7072L18.6432 10.84C18.7034 10.7901 18.7441 10.7205 18.7581 10.6436C18.7722 10.5666 18.7587 10.4872 18.72 10.4192L14.72 3.50082C14.6516 3.38218 14.5532 3.28364 14.4347 3.21512C14.3162 3.14661 14.1817 3.11053 14.0448 3.11053C13.9079 3.11053 13.7734 3.14661 13.6548 3.21512C13.5363 3.28364 13.4379 3.38218 13.3696 3.50082L1.66877 23.7872C1.59988 23.9059 1.56348 24.0406 1.56323 24.1778C1.56299 24.315 1.5989 24.4499 1.66736 24.5688C1.73582 24.6877 1.83441 24.7865 1.95319 24.8551C2.07197 24.9238 2.20676 24.96 2.34397 24.96H25.768C25.9054 24.9605 26.0404 24.9246 26.1595 24.8561C26.2786 24.7875 26.3774 24.6887 26.446 24.5696C26.5145 24.4505 26.5504 24.3154 26.5499 24.178C26.5494 24.0406 26.5126 23.9058 26.4432 23.7872Z" fill="white"/>
</svg>
