<svg width="30" height="30" viewBox="0 0 30 30" fill="none" xmlns="http://www.w3.org/2000/svg">
  <g clip-path="url(#clip0_5683_974)">
    <path d="M22.8118 0.155518H18.7722C14.8087 0.155518 11.5841 3.38015 11.5841 7.34369C11.5841 8.50855 11.8688 9.66485 12.4074 10.6876L12.3728 10.7058C14.8738 11.0824 17.0355 12.5091 18.3927 14.5212C18.5192 14.5278 18.6459 14.5319 18.7722 14.5319H21.7101L21.9187 15.1292C22.5087 16.819 24.1077 17.9543 25.8977 17.9543H26.2143C25.6793 17.0154 25.41 15.9569 25.4322 14.8682L25.4488 14.0553L25.9402 13.8173C28.4064 12.623 30 10.082 30 7.34375C30.0001 3.38015 26.7754 0.155518 22.8118 0.155518ZM24.0954 9.31341L22.8352 10.5736L20.7921 8.53038L18.7489 10.5736L17.4887 9.31341L19.5319 7.27022L17.4887 5.22704L18.7489 3.96689L20.7921 6.01007L22.8352 3.96689L24.0954 5.22704L22.0522 7.27022L24.0954 9.31341Z" fill="currentColor"/>
    <path d="M11.0494 12.3889H7.06924C3.17113 12.3889 -0.00012207 15.5602 -0.00012207 19.4583C-0.00012207 22.1518 1.56746 24.651 3.99357 25.8253L4.48495 26.0632L4.50056 26.8163C4.52233 27.8841 4.26013 28.9222 3.73935 29.8445H4.02879C5.76438 29.8445 7.32817 28.7476 7.91991 27.1151L8.13286 26.5276H11.0494C14.9475 26.5276 18.1187 23.3564 18.1187 19.4583C18.1187 15.5602 14.9475 12.3889 11.0494 12.3889ZM8.5559 22.7251L5.50218 20.0531L6.67583 18.7119L8.37451 20.1982L11.3531 16.7233L12.7062 17.8831L8.5559 22.7251Z" fill="currentColor"/>
  </g>
  <defs>
    <clipPath id="clip0_5683_974">
      <rect width="30" height="30" fill="white"/>
    </clipPath>
  </defs>
</svg>


