<svg width="179" height="26" viewBox="0 0 179 26" fill="none" xmlns="http://www.w3.org/2000/svg">
<g clip-path="url(#clip0_5683_1564)">
<path d="M19.7496 17.2331L23.9458 21.2744C24.6148 20.518 25.1899 19.6891 25.6595 18.8044L16.7565 15.2605C17.2076 14.7232 17.4869 14.0713 17.5605 13.384L26.4635 16.9561C26.7771 16.0095 26.9741 15.0306 27.0504 14.0396H21.1288C21.1812 13.7028 21.2087 13.3628 21.2109 13.0222C21.2102 12.6741 21.1827 12.3265 21.1288 11.9822H27.068C26.9917 10.9913 26.7947 10.0124 26.4812 9.06571L17.5664 12.6209C17.4918 11.9311 17.2104 11.2771 16.7565 10.7387L25.6595 7.18918C25.1895 6.30646 24.6144 5.47944 23.9458 4.72483L19.7496 8.76614C19.3252 8.22743 18.8233 7.74973 18.2589 7.34744L22.4551 3.30614C21.6708 2.65575 20.81 2.09614 19.8904 1.63875L16.1989 10.2131C15.6415 9.7769 14.9647 9.50594 14.2505 9.4331L17.942 0.8644C16.959 0.56255 15.9426 0.372847 14.9136 0.299183V5.99657C14.2158 5.88845 13.5045 5.88845 12.8067 5.99657V0.282227C11.7778 0.35589 10.7614 0.545594 9.7784 0.847444L13.464 9.42179C12.7498 9.49463 12.073 9.7656 11.5156 10.2018L7.83581 1.63875C6.9213 2.09176 6.06456 2.64562 5.28286 3.28918L9.46735 7.34744C8.90155 7.75468 8.39951 8.23818 7.97666 8.7831L3.78043 4.72483C3.11135 5.48115 2.53623 6.31009 2.06673 7.19483L10.9698 10.7387C10.5169 11.2755 10.2355 11.9274 10.1599 12.6153L1.25683 9.0431C0.943666 9.98988 0.746697 10.9687 0.669941 11.9596H6.59161C6.47971 12.6336 6.47971 13.3204 6.59161 13.9944H0.658203C0.734959 14.9853 0.931928 15.9641 1.24509 16.9109L10.1423 13.3614C10.2185 14.0589 10.5063 14.7194 10.9698 15.2605L2.06673 18.8044C2.5366 19.6889 3.1117 20.5178 3.78043 21.2744L7.97666 17.2331C8.40086 17.772 8.90283 18.2497 9.46735 18.6518L5.28286 22.7101C6.0681 23.3545 6.92883 23.9084 7.84755 24.3605L11.5332 15.7861C12.0904 16.2226 12.7674 16.4936 13.4816 16.5661L9.78427 25.1348C10.7673 25.4367 11.7837 25.6264 12.8126 25.7001V20.0027C13.5104 20.1108 14.2217 20.1108 14.9195 20.0027V25.717C15.9484 25.6433 16.9648 25.4536 17.9478 25.1518L14.2563 16.5661C14.9706 16.4936 15.6476 16.2226 16.2048 15.7861L19.8904 24.3605C20.8092 23.9084 21.6699 23.3545 22.4551 22.7101L18.2589 18.6518C18.8235 18.2497 19.3254 17.772 19.7496 17.2331ZM49.7277 17.2274C49.4214 17.7077 49.0082 18.1165 48.518 18.4244C48.0279 18.7322 47.4728 18.9315 46.893 19.0079C44.6159 19.0079 43.2074 17.3122 43.2074 15.2266C43.204 14.1261 43.6029 13.0596 44.3342 12.214C44.6766 11.808 45.1039 11.476 45.5882 11.2394C46.0725 11.0027 46.603 10.8668 47.1454 10.8405C47.8301 10.8692 48.4791 11.1429 48.9654 11.6081C49.4516 12.0733 49.7402 12.6965 49.7746 13.3557C49.7746 13.8022 49.7218 13.8361 49.4049 13.9209C49.088 14.0057 46.8519 14.1527 44.5161 14.2261C44.4574 16.9901 46.2357 17.917 47.5914 17.917C48.3243 17.8661 49.0137 17.5632 49.534 17.0635L49.7277 17.2274ZM44.6042 13.6779C45.7134 13.6779 46.805 13.6779 47.9201 13.644C48.1783 13.644 48.2546 13.5366 48.2546 13.0787C48.2682 12.8572 48.2347 12.6354 48.1563 12.4267C48.0779 12.2181 47.9562 12.027 47.7986 11.8652C47.6409 11.7033 47.4507 11.5741 47.2396 11.4854C47.0284 11.3967 46.8006 11.3503 46.5702 11.3492C45.6958 11.3605 44.8037 12.1461 44.6042 13.6779ZM53.6892 19.0079L51.3416 12.5531C50.9895 11.6092 50.9543 11.5018 50.027 11.3209V11.0553H53.7478V11.304L52.9908 11.5018C52.6386 11.5922 52.5447 11.7505 52.7325 12.2705L54.323 16.8544H54.3582C55.0449 15.1587 55.7491 13.2201 56.6001 11.1344H56.8055L59.1941 16.8544H59.2294C59.6754 15.447 60.2681 13.5761 60.5616 12.2931C60.6907 11.7279 60.6379 11.564 60.3034 11.4905L59.4113 11.304V11.0553H62.6685V11.304C61.7588 11.5187 61.6297 11.6431 61.2776 12.4344C60.7435 13.627 59.7399 16.5887 58.93 18.9966H58.6483L56.2245 13.3218C55.485 15.1757 54.7279 16.9222 53.9474 19.0079H53.6892ZM68.9951 16.2101C68.9951 18.1374 69.1418 18.3466 70.6619 18.5444V18.7931H65.8494V18.5444C67.4047 18.3466 67.5514 18.1318 67.5514 16.2101V9.78918C67.5514 7.86179 67.4047 7.65266 65.9198 7.45483V7.20614H71.014C72.0317 7.13788 73.0488 7.3475 73.9484 7.81092C74.3367 8.05478 74.653 8.391 74.8669 8.78707C75.0807 9.18313 75.1848 9.62564 75.1692 10.0718C75.1692 11.4961 74.2243 12.604 72.669 13.2087C72.9859 13.7457 73.743 14.9553 74.3006 15.7409C74.8148 16.4659 75.3713 17.1622 75.9673 17.8266C76.2895 18.2726 76.7805 18.579 77.3348 18.6801V18.8948C77.1118 18.8948 76.8007 18.8948 76.2256 18.8214C75.6937 18.7981 75.1763 18.6474 74.7203 18.3829C74.2642 18.1184 73.8839 17.7484 73.6139 17.3066C72.8744 16.2892 72.223 15.1474 71.6713 14.2601C71.5483 14.03 71.3538 13.8427 71.115 13.7242C70.8762 13.6056 70.605 13.5618 70.3391 13.5987H69.0186V16.1818L68.9951 16.2101ZM68.9951 13.2709H70.3684C71.1066 13.3465 71.8499 13.1834 72.4812 12.8074C72.8485 12.5079 73.1372 12.1292 73.3239 11.7019C73.5105 11.2747 73.5898 10.8111 73.5552 10.3487C73.5552 8.38744 72.2876 7.56788 70.6677 7.56788C70.1635 7.56468 69.6602 7.61013 69.1653 7.70353C69.0538 7.73744 69.001 7.82788 69.001 8.18397V13.2709H68.9951ZM83.5499 17.2274C83.2436 17.7077 82.8304 18.1165 82.3402 18.4244C81.8501 18.7322 81.295 18.9315 80.7152 19.0079C78.4381 19.0079 77.0296 17.3122 77.0296 15.2266C77.0262 14.1261 77.4251 13.0596 78.1564 12.214C78.5014 11.8053 78.9324 11.4716 79.421 11.2348C79.9096 10.9981 80.4447 10.8637 80.9911 10.8405C81.6758 10.8692 82.3248 11.1429 82.811 11.6081C83.2973 12.0733 83.5859 12.6965 83.6203 13.3557C83.6203 13.8022 83.5675 13.8361 83.2506 13.9209C82.9337 14.0057 80.6976 14.1527 78.3618 14.2261C78.309 16.9901 80.0814 17.917 81.4371 17.917C82.1578 17.8523 82.8314 17.544 83.3386 17.0466L83.5499 17.2274ZM78.4381 13.6779C79.5473 13.6779 80.6389 13.6779 81.754 13.644C82.0122 13.644 82.0885 13.5366 82.0885 13.0787C82.1004 12.8582 82.0658 12.6375 81.9866 12.4302C81.9075 12.2229 81.7855 12.0332 81.628 11.8726C81.4706 11.712 81.281 11.5838 81.0706 11.4958C80.8602 11.4077 80.6335 11.3617 80.4042 11.3605C79.5121 11.3605 78.6435 12.1461 78.4381 13.6779ZM89.3953 13.0335C88.8084 11.7844 88.1158 11.287 87.3235 11.287C87.1562 11.2799 86.9892 11.3073 86.8338 11.3675C86.6784 11.4277 86.5381 11.5193 86.4225 11.636C86.3069 11.7527 86.2185 11.8919 86.1634 12.0442C86.1082 12.1966 86.0876 12.3585 86.1028 12.5192C86.1028 13.3953 86.9186 13.8192 87.7696 14.1583C89.1781 14.7235 90.0115 15.2887 90.0115 16.5492C90.0115 18.1544 88.4034 19.0079 86.9949 19.0079C86.2361 19.0057 85.4972 18.7744 84.8821 18.3466C84.7251 17.6982 84.6503 17.034 84.6591 16.3683L84.9349 16.3344C85.2695 17.3348 86.2319 18.5614 87.2825 18.5614C87.4743 18.5788 87.6677 18.5553 87.849 18.4924C88.0302 18.4296 88.1949 18.329 88.3311 18.1978C88.4673 18.0666 88.5718 17.908 88.637 17.7335C88.7023 17.5589 88.7267 17.3726 88.7086 17.1879C88.7086 16.3118 88.1217 15.9218 87.171 15.4922C86.0441 14.9948 84.9291 14.4748 84.9291 13.1918C84.9291 11.9087 86.1028 10.8405 87.7226 10.8405C88.2514 10.8401 88.7747 10.9439 89.2603 11.1457C89.44 11.7279 89.5696 12.3234 89.6476 12.9261L89.3953 13.0335ZM97.6527 17.2274C97.3464 17.7077 96.9333 18.1165 96.4431 18.4244C95.9529 18.7322 95.3979 18.9315 94.8181 19.0079C92.541 19.0079 91.1324 17.3122 91.1324 15.2266C91.1291 14.1261 91.528 13.0596 92.2593 12.214C92.6023 11.8073 93.0305 11.4749 93.5159 11.2382C94.0012 11.0016 94.5329 10.8661 95.0763 10.8405C95.761 10.8692 96.41 11.1429 96.8963 11.6081C97.3826 12.0733 97.6711 12.6965 97.7056 13.3557C97.7056 13.8022 97.6527 13.8361 97.3358 13.9209C97.0189 14.0057 94.7829 14.1527 92.4471 14.2261C92.3884 16.9901 94.1666 17.917 95.5223 17.917C96.2552 17.8661 96.9446 17.5632 97.4649 17.0635L97.6527 17.2274ZM92.5468 13.6779C93.6561 13.6779 94.7477 13.6779 95.8627 13.644C96.121 13.644 96.1973 13.5366 96.1973 13.0787C96.2093 12.8563 96.1739 12.6337 96.0933 12.4249C96.0127 12.2161 95.8886 12.0253 95.7287 11.8644C95.5687 11.7034 95.3763 11.5757 95.1631 11.489C94.95 11.4024 94.7207 11.3586 94.4894 11.3605C93.615 11.3605 92.7288 12.1461 92.541 13.6779H92.5468ZM104.466 17.0127C104.466 17.674 104.707 18.0131 104.983 18.0131C105.262 18.0118 105.536 17.9438 105.781 17.8153L105.945 18.0866L104.185 19.0135C103.907 18.9379 103.66 18.7838 103.475 18.5711C103.29 18.3584 103.175 18.0971 103.146 17.8209C102.389 18.3183 101.385 19.0135 100.998 19.0135C100.416 19.0272 99.8525 18.8184 99.4302 18.4329C99.0078 18.0473 98.7612 17.5164 98.7443 16.9561C98.7443 16.1366 99.1904 15.5657 100.17 15.2096C101.173 14.8638 102.153 14.4599 103.105 14.0001V13.2653C103.105 12.197 102.606 11.5018 101.661 11.5018C101.325 11.4741 100.992 11.5758 100.734 11.7844C100.374 12.1272 100.151 12.5817 100.106 13.0674C100.096 13.167 100.045 13.2586 99.9643 13.3221C99.8841 13.3857 99.7809 13.416 99.6775 13.4066C99.4935 13.4057 99.3155 13.3432 99.1742 13.2297C99.0328 13.1163 98.9369 12.959 98.9028 12.7848C98.9419 12.6304 99.0144 12.4856 99.1155 12.36C99.2166 12.2343 99.3441 12.1307 99.4897 12.0557C100.336 11.4649 101.302 11.0527 102.324 10.8461C102.821 10.8457 103.305 10.9895 103.715 11.2587C103.983 11.4641 104.192 11.7315 104.324 12.0359C104.455 12.3404 104.504 12.6719 104.466 12.9996V17.0127ZM103.117 14.4127C102.712 14.5709 101.62 15.057 101.268 15.2322C100.546 15.5714 100.229 15.9274 100.229 16.5887C100.206 16.7705 100.223 16.9549 100.277 17.1305C100.331 17.306 100.422 17.469 100.544 17.6094C100.666 17.7497 100.817 17.8645 100.987 17.9466C101.157 18.0287 101.342 18.0763 101.532 18.0866C102.112 18.0491 102.664 17.8309 103.105 17.4648V14.407L103.117 14.4127ZM108.886 17.1879C108.886 18.1714 108.98 18.3466 110.406 18.5444V18.7931H106.227V18.5444C107.401 18.3466 107.507 18.1714 107.507 17.1879V13.0731C107.507 12.0218 107.471 11.9144 106.286 11.7731V11.5187C107.178 11.3626 108.053 11.1241 108.897 10.8066V12.734H108.933C109.361 11.9653 110.23 10.8461 111.098 10.8461C111.342 10.8454 111.577 10.9298 111.76 11.0837C111.944 11.2376 112.063 11.4504 112.096 11.6827C112.09 11.8555 112.036 12.0235 111.937 12.1681C111.839 12.3127 111.701 12.4284 111.538 12.5022C111.476 12.5443 111.401 12.5668 111.324 12.5668C111.248 12.5668 111.173 12.5443 111.11 12.5022C110.902 12.2884 110.616 12.1607 110.312 12.1461C109.883 12.1461 109.426 12.4514 108.903 13.3783V17.2105L108.886 17.1879ZM118.622 11.304C118.683 11.3498 118.732 11.4093 118.763 11.4773C118.795 11.5452 118.809 11.6196 118.804 11.694C118.804 11.8676 118.747 12.0367 118.642 12.1776C118.536 12.3185 118.388 12.4241 118.217 12.4796C118.112 12.4749 118.013 12.4302 117.941 12.3553C117.68 12.0998 117.369 11.8972 117.025 11.7594C116.681 11.6216 116.312 11.5513 115.94 11.5527C114.866 11.5527 113.774 12.3553 113.774 14.4409C113.774 17.2048 115.793 17.9001 116.709 17.9001C117.624 17.9001 117.988 17.7022 118.951 16.8318L119.133 16.9901C118.358 18.1657 117.225 18.9853 116.198 18.9853C115.697 18.9913 115.2 18.901 114.735 18.7195C114.271 18.5381 113.848 18.2692 113.493 17.9287C113.138 17.5881 112.857 17.1827 112.666 16.7362C112.476 16.2897 112.38 15.811 112.384 15.3283C112.376 14.6749 112.526 14.0287 112.821 13.4403C113.117 12.852 113.549 12.3374 114.086 11.937C114.935 11.2627 115.985 10.8667 117.085 10.8066C117.635 10.8323 118.167 11.0045 118.622 11.304ZM121.897 12.1235C122.608 11.4163 123.548 10.9637 124.561 10.8405C126.117 10.8066 127.079 11.7505 127.079 13.4405V17.1822C127.079 18.1657 127.173 18.3409 128.253 18.5387V18.7874H124.421V18.5444C125.594 18.3466 125.677 18.1714 125.677 17.1879V13.9435C125.677 12.604 125.195 11.7505 123.769 11.7505C123.058 11.7689 122.381 12.0502 121.879 12.5361V17.1879C121.879 18.1714 121.973 18.3466 123.1 18.5444V18.7931H119.285V18.5444C120.395 18.3466 120.488 18.1714 120.488 17.1879V8.29136C120.488 7.2231 120.453 7.1157 119.233 6.95179V6.78223C120.048 6.62397 121.251 6.3357 121.879 6.16049V12.1518L121.897 12.1235ZM141.387 10.1283C140.648 8.07657 139.445 7.30223 137.573 7.30223C134.756 7.30223 133.259 9.92484 133.259 12.7227C133.259 16.1648 134.861 18.6405 137.59 18.6405C139.738 18.6405 140.701 17.4818 141.792 15.6109L142.068 15.6618C141.828 16.4305 141.423 17.8548 141.123 18.5331C139.985 18.8169 138.818 18.9837 137.643 19.0305C136.83 19.06 136.02 18.929 135.262 18.6453C134.503 18.3617 133.813 17.9315 133.234 17.3813C132.655 16.8311 132.2 16.1725 131.895 15.4461C131.59 14.7198 131.443 13.941 131.463 13.1579C131.463 9.48397 134.286 6.94049 138.001 6.94049C139.134 6.96197 140.259 7.11763 141.352 7.40397C141.499 8.38179 141.575 9.16744 141.687 10.0944L141.387 10.1283ZM149.627 17.2274C149.321 17.7077 148.908 18.1165 148.418 18.4244C147.927 18.7322 147.372 18.9315 146.793 19.0079C144.516 19.0079 143.107 17.3122 143.107 15.2266C143.104 14.1261 143.503 13.0596 144.234 12.214C144.576 11.808 145.003 11.476 145.488 11.2394C145.972 11.0027 146.503 10.8668 147.045 10.8405C147.727 10.8733 148.371 11.1488 148.854 11.6136C149.336 12.0784 149.623 12.6992 149.657 13.3557C149.657 13.8022 149.604 13.8361 149.287 13.9209C148.97 14.0057 146.734 14.1527 144.398 14.2261C144.375 16.9561 146.135 17.9001 147.497 17.9001C148.23 17.8491 148.919 17.5462 149.439 17.0466L149.627 17.2274ZM144.516 13.6779C145.625 13.6779 146.716 13.6779 147.831 13.644C148.09 13.644 148.166 13.5366 148.166 13.0787C148.18 12.8572 148.146 12.6354 148.068 12.4267C147.989 12.2181 147.868 12.027 147.71 11.8652C147.552 11.7033 147.362 11.5741 147.151 11.4854C146.94 11.3967 146.712 11.3503 146.482 11.3492C145.59 11.3605 144.703 12.1461 144.516 13.6779ZM153.043 12.214C153.413 11.9822 153.894 11.6487 154.375 11.3605C154.809 11.0483 155.331 10.8691 155.872 10.8461C157.409 10.8461 158.219 11.807 158.219 13.1974V17.1935C158.219 18.177 158.313 18.3522 159.346 18.5501V18.7987H155.479V18.5444C156.734 18.3466 156.828 18.1714 156.828 17.1879V13.7683C156.828 12.734 156.494 11.7561 155.033 11.7561C154.287 11.8256 153.585 12.1249 153.031 12.6096V17.1935C153.031 18.177 153.125 18.3522 154.27 18.5501V18.7987H150.308V18.5444C151.546 18.3466 151.64 18.1714 151.64 17.1879V13.0731C151.64 12.0218 151.605 11.9144 150.42 11.7731V11.5187C151.312 11.3626 152.186 11.1241 153.031 10.8066V12.214H153.043ZM162.169 16.4418C162.169 17.8492 162.873 18.1374 163.39 18.1374C163.805 18.0972 164.205 17.9699 164.564 17.7644L164.693 18.0131L163.173 18.8496C163.021 18.938 162.85 18.9921 162.674 19.0079C161.359 19.0079 160.766 18.2787 160.766 16.9222V11.6431H159.417L159.364 11.4622L159.951 11.0496H160.807V10.0209L161.981 8.6644L162.222 8.75484V11.0553H164.423C164.453 11.1005 164.474 11.151 164.484 11.204C164.494 11.2569 164.493 11.3113 164.481 11.3638C164.469 11.4164 164.446 11.4662 164.414 11.5102C164.382 11.5543 164.341 11.5917 164.294 11.6205H162.222V16.4135L162.169 16.4418ZM171.583 17.2274C171.276 17.7077 170.863 18.1165 170.373 18.4244C169.883 18.7322 169.328 18.9315 168.748 19.0079C166.471 19.0079 165.062 17.3122 165.062 15.2266C165.059 14.1261 165.458 13.0596 166.189 12.214C166.534 11.8053 166.965 11.4716 167.454 11.2348C167.942 10.9981 168.477 10.8637 169.024 10.8405C169.709 10.8692 170.358 11.1429 170.844 11.6081C171.33 12.0733 171.619 12.6965 171.653 13.3557C171.653 13.8022 171.6 13.8361 171.283 13.9209C170.966 14.0057 168.73 14.1527 166.395 14.2261C166.336 16.9901 168.114 17.917 169.47 17.917C170.191 17.8523 170.864 17.544 171.371 17.0466L171.583 17.2274ZM166.471 13.6779C167.58 13.6779 168.672 13.6779 169.787 13.644C170.045 13.644 170.121 13.5366 170.121 13.0787C170.133 12.8582 170.099 12.6375 170.019 12.4302C169.94 12.2229 169.818 12.0332 169.661 11.8726C169.503 11.712 169.314 11.5838 169.103 11.4958C168.893 11.4077 168.666 11.3617 168.437 11.3605C167.545 11.3605 166.676 12.1461 166.471 13.6779ZM174.992 17.1879C174.992 18.1714 175.086 18.3466 176.513 18.5444V18.7931H172.328V18.5444C173.502 18.3466 173.607 18.1714 173.607 17.1879V13.0731C173.607 12.0218 173.572 11.9144 172.387 11.7731V11.5187C173.279 11.3626 174.154 11.1241 174.998 10.8066V12.734H175.034C175.462 11.9653 176.331 10.8461 177.199 10.8461C177.439 10.8495 177.671 10.9357 177.85 11.0892C178.03 11.2427 178.147 11.4533 178.179 11.6827C178.174 11.8555 178.119 12.0235 178.02 12.1681C177.922 12.3127 177.784 12.4284 177.622 12.5022C177.559 12.5443 177.484 12.5668 177.408 12.5668C177.331 12.5668 177.256 12.5443 177.193 12.5022C176.985 12.2884 176.699 12.1607 176.395 12.1461C175.967 12.1461 175.509 12.4514 174.987 13.3783V17.2105L174.992 17.1879ZM36.8221 16.2101C36.8221 18.1374 36.9688 18.3466 38.7647 18.5444V18.7931H33.6764V18.5444C35.1964 18.3466 35.3431 18.1318 35.3431 16.2101V9.78918C35.3431 7.86179 35.1964 7.65266 33.7703 7.45483V7.20614H38.8644C39.952 7.13574 41.0347 7.39891 41.9573 7.95788C42.3483 8.23884 42.6604 8.60925 42.8653 9.03558C43.0702 9.46192 43.1616 9.93073 43.1311 10.3996C43.1311 12.5192 41.3 13.7909 39.5217 13.9831C39.2095 14.0095 38.8961 14.0208 38.5827 14.017L36.8221 13.6101V16.2101ZM36.8221 13.237C37.3641 13.3979 37.9276 13.4816 38.4947 13.4857C39.8563 13.4857 41.4291 12.8414 41.4291 10.4561C41.4291 8.4044 40.3023 7.56788 38.4125 7.56788C37.9393 7.56928 37.4674 7.61662 37.004 7.70918C36.8925 7.7431 36.8338 7.82788 36.8338 8.18397V13.2427L36.8221 13.237Z" fill="white"/>
</g>
<defs>
<clipPath id="clip0_5683_1564">
<rect width="179" height="26" fill="white"/>
</clipPath>
</defs>
</svg>
