<svg width="40" height="40" viewBox="0 0 40 40" fill="none" xmlns="http://www.w3.org/2000/svg">
<path d="M17.7592 13.7997L19.9998 12.8708L22.2404 13.7997C22.5406 13.9237 22.8853 13.8845 23.1504 13.6922C23.4141 13.5003 23.5591 13.1847 23.5335 12.8596L23.3429 10.4417L24.9185 8.597C25.1304 8.34944 25.1979 8.00875 25.0972 7.69869C24.9966 7.388 24.7416 7.15231 24.4241 7.07669L22.066 6.51031L20.7991 4.44182C20.4619 3.8527 19.5376 3.85276 19.2004 4.44182L17.9335 6.51031L15.5754 7.07669C15.2579 7.15231 15.0029 7.388 14.9023 7.69869C14.8016 8.00875 14.8691 8.34944 15.081 8.597L16.6566 10.4417L16.466 12.8596C16.4404 13.1847 16.5854 13.5004 16.8491 13.6922C17.1136 13.8835 17.458 13.9247 17.7592 13.7997Z" fill="white"/>
<path d="M35.9537 11.3869C35.8531 11.0762 35.5981 10.8406 35.2806 10.7649L32.9225 10.1986L31.6556 8.13006C31.485 7.85187 31.1825 7.6825 30.8562 7.6825C30.53 7.6825 30.2275 7.85193 30.0568 8.13006L28.79 10.1986L26.4318 10.7649C26.1143 10.8406 25.8593 11.0762 25.7587 11.3869C25.6581 11.697 25.7256 12.0377 25.9375 12.2852L27.5131 14.1299L27.3225 16.5479C27.2968 16.8729 27.4418 17.1886 27.7056 17.3805C27.97 17.5718 28.3143 17.613 28.6156 17.488L30.8562 16.559L33.0968 17.488C33.397 17.6119 33.7418 17.5727 34.0068 17.3805C34.2706 17.1885 34.4156 16.8729 34.3899 16.5479L34.1993 14.1299L35.7749 12.2852C35.9868 12.0377 36.0543 11.697 35.9537 11.3869Z" fill="white"/>
<path d="M11.7427 17.5592C11.9377 17.5592 12.1308 17.4986 12.294 17.3805C12.5577 17.1885 12.7027 16.8729 12.6771 16.5479L12.4865 14.1299L14.0621 12.2852C14.274 12.0377 14.3415 11.697 14.2408 11.3869C14.1402 11.0762 13.8852 10.8406 13.5677 10.7649L11.2096 10.1986L9.94272 8.13006C9.77209 7.85187 9.4696 7.6825 9.14335 7.6825C8.8171 7.6825 8.5146 7.85193 8.34397 8.13006L7.0771 10.1986L4.71898 10.7649C4.40148 10.8406 4.14648 11.0762 4.04586 11.3869C3.94523 11.697 4.01273 12.0377 4.22461 12.2852L5.80023 14.1299L5.6096 16.5479C5.58398 16.8729 5.72898 17.1886 5.99273 17.3805C6.2571 17.5718 6.60148 17.613 6.90273 17.488L9.14335 16.559L11.384 17.488C11.4996 17.5355 11.6215 17.5592 11.7427 17.5592Z" fill="white"/>
<path d="M31.0367 26.5513L29.9273 32.9094C29.6486 34.5012 28.2667 35.6625 26.6511 35.6625H20.253C19.8061 35.6625 19.368 35.5731 18.9623 35.4062C18.5567 35.2375 18.1836 34.9912 17.868 34.675C17.8486 34.6556 17.8286 34.6362 17.8086 34.6169V24.0556L17.8511 24.0406C18.753 23.7169 19.4561 22.9944 19.7536 22.0831L20.313 20.2932L21.0667 17.8813C21.2886 17.2032 22.0173 16.8338 22.6961 17.0557C23.9386 17.4607 24.7286 18.6157 24.7286 19.855C24.7286 20.1588 24.6811 20.4675 24.5811 20.7713L23.7411 23.5275H28.4954C30.0979 23.5275 31.3129 24.9731 31.0367 26.5513Z" fill="white"/>
<path d="M15.0011 36H10.6614C10.1466 36 9.72931 35.5827 9.72931 35.0679V23.8289C9.72931 23.314 10.1466 22.8967 10.6614 22.8967H15.0011C15.5159 22.8967 15.9332 23.314 15.9332 23.8289V35.0679C15.9332 35.5827 15.5159 36 15.0011 36Z" fill="white"/>
</svg>
