<svg width="498" height="381" viewBox="0 0 498 381" fill="none" xmlns="http://www.w3.org/2000/svg">
<path opacity="0.07" d="M495.923 375.831L416.295 238.688C415.522 237.34 414.291 236.311 412.823 235.786C411.356 235.261 409.747 235.274 408.288 235.822L135.33 314.708L340.581 119.179C341.786 118.197 342.6 116.82 342.876 115.295C343.152 113.77 342.873 112.197 342.087 110.858L262.46 -26.2843C261.095 -28.6305 259.134 -30.5785 256.773 -31.9328C254.412 -33.2871 251.734 -34 249.008 -34C246.282 -34 243.605 -33.2871 241.244 -31.9328C238.883 -30.5785 236.921 -28.6305 235.557 -26.2843L2.07712 375.831C0.715217 378.18 -0.00113725 380.844 1.3552e-06 383.555C0.00113996 386.266 0.719741 388.929 2.08362 391.277C3.44749 393.625 5.40863 395.575 7.77005 396.93C10.1315 398.286 12.81 399 15.5367 399H482.463C485.19 399 487.869 398.286 490.23 396.93C492.591 395.575 494.552 393.625 495.916 391.277C497.28 388.929 497.999 386.266 498 383.555C498.001 380.844 497.285 378.18 495.923 375.831Z" fill="white"/>
</svg>
